<?xml version="1.0" standalone="no"?>
<!DOCTYPE svg PUBLIC "-//W3C//DTD SVG 20010904//EN"
 "http://www.w3.org/TR/2001/REC-SVG-20010904/DTD/svg10.dtd">
<svg version="1.0" xmlns="http://www.w3.org/2000/svg"
 width="111.000000pt" height="111.000000pt" viewBox="0 0 111.000000 111.000000"
 preserveAspectRatio="xMidYMid meet">
<metadata>
Created by potrace 1.11, written by Peter Selinger 2001-2013
</metadata>
<g transform="translate(0.000000,111.000000) scale(0.100000,-0.100000)"
fill="#000000" stroke="none">
<path d="M513 1100 c-13 -5 -69 -36 -125 -68 -57 -33 -119 -69 -138 -79 -106
-61 -157 -93 -175 -113 -19 -21 -20 -39 -23 -274 -2 -224 -1 -255 15 -285 15
-28 55 -55 233 -157 158 -91 224 -124 249 -124 49 0 456 232 482 275 17 27 19
55 19 282 l0 251 -25 30 c-29 35 -423 262 -462 267 -16 2 -38 0 -50 -5z m253
-201 c125 -72 178 -109 185 -126 5 -13 9 -116 9 -228 0 -197 -1 -205 -22 -229
-26 -28 -350 -216 -373 -216 -11 0 -15 12 -15 49 0 41 3 51 21 56 50 16 275
154 287 176 15 29 15 311 0 343 -12 27 -271 177 -306 178 -31 1 -266 -130
-298 -166 -19 -21 -21 -36 -22 -207 0 -101 -1 -201 -1 -222 l-1 -39 -33 20
c-55 35 -57 47 -56 274 0 203 1 207 24 230 13 13 88 60 167 105 203 116 200
114 231 109 15 -3 107 -51 203 -107z m-71 -168 c38 -23 73 -49 77 -59 11 -27
9 -221 -2 -242 -11 -20 -197 -130 -221 -130 -8 0 -40 16 -71 35 -32 19 -59 31
-61 27 -2 -4 -3 -48 -2 -99 l2 -92 -47 25 -47 26 1 221 c1 129 5 229 11 238 9
14 172 111 205 121 17 6 51 -10 155 -71z"/>
<path d="M482 669 c-29 -17 -56 -38 -60 -47 -7 -14 -9 -112 -3 -144 0 -3 31
-23 67 -43 l65 -37 67 39 67 38 1 72 c1 39 -2 75 -5 80 -9 14 -117 73 -132 73
-8 0 -38 -14 -67 -31z"/>
</g>
</svg>
